<?xml version="1.0" encoding="utf-8"?>
<!-- Generator: Adobe Illustrator 26.5.0, SVG Export Plug-In . SVG Version: 6.00 Build 0)  -->
<svg version="1.1" id="Layer_1" xmlns="http://www.w3.org/2000/svg" xmlns:xlink="http://www.w3.org/1999/xlink" x="0px" y="0px"
	 viewBox="0 0 242.6 249.2" style="enable-background:new 0 0 242.6 249.2;" xml:space="preserve">
<style type="text/css">
	.st0{font-family:'MyriadPro-Regular';}
	.st1{font-size:12px;}
	.st2{font-family:'MyriadPro-Bold';}
	.st3{font-size:10px;}
	.st4{fill:none;stroke:#4776BB;stroke-width:2;stroke-linecap:round;}
	.st5{fill:none;stroke:#ED2224;stroke-width:2;}
	.st6{fill:none;stroke:#000000;stroke-width:2;stroke-miterlimit:10;}
	.st7{fill:none;stroke:#E3DE1F;stroke-width:2;stroke-linecap:round;}
	.st8{fill:none;stroke:#70CDDD;stroke-width:2;stroke-linecap:round;}
	.st9{fill:none;stroke:#4953A4;stroke-width:2;stroke-linecap:round;}
	.st10{fill:none;stroke:#E86D24;stroke-width:2;stroke-linecap:round;}
	.st11{fill:none;stroke:#ED2224;stroke-width:2;stroke-linecap:round;}
</style>
<text transform="matrix(1 0 0 1 141.0621 19.8516)" class="st0 st1">Lacks uniqueness</text>
<text transform="matrix(1 0 0 1 23.9102 19.8516)" class="st0 st1">Has uniqueness</text>
<text transform="matrix(1 0 0 1 9.3705 35.8887)" class="st2 st3">A</text>
<text transform="matrix(1 0 0 1 9.3705 152.239)" class="st2 st3">B</text>
<g>
	<path class="st4" d="M184.8,34.5l45.3,33"/>
	<path class="st4" d="M230.2,67.5l-17.3,53.2"/>
	<path class="st4" d="M212.9,120.8h-56.3"/>
	<path class="st4" d="M156.6,120.8l-17.3-53.3"/>
	<path class="st4" d="M139.3,67.5l45.5-33"/>
	<path class="st5" d="M212.9,120.8L212.9,120.8"/>
	<line class="st6" x1="185.8" y1="117.9" x2="185.8" y2="124.1"/>
</g>
<g>
	<path class="st7" d="M21.8,58l41.4-23.9"/>
	<path class="st8" d="M63.2,34.1L104.6,58"/>
	<path class="st9" d="M104.6,58.1l-17.5,65.3"/>
	<path class="st7" d="M87.1,123.3H39.3"/>
	<path class="st9" d="M39.3,123.4L21.8,58"/>
	<path class="st10" d="M21.8,58l17.5,65.3"/>
	<path class="st7" d="M63.2,34.1L104.6,58"/>
	<path class="st11" d="M104.6,58.1L104.6,58.1"/>
	<path class="st10" d="M104.6,58.1l-17.5,65.3"/>
	<line class="st6" x1="64.9" y1="120.2" x2="64.9" y2="126.4"/>
</g>
<g>
	<path class="st4" d="M148.5,171.6l53-18.2"/>
	<path class="st4" d="M201.6,153.3l33.7,44.7"/>
	<path class="st4" d="M235.3,198L203,244.2"/>
	<path class="st4" d="M203,244.2l-53.6-16.4"/>
	<path class="st4" d="M149.4,227.8l-0.9-56.2"/>
	<path class="st5" d="M235.3,198L235.3,198"/>
	<line class="st6" x1="217.3" y1="218.6" x2="222.4" y2="222.2"/>
</g>
<path class="st7" d="M53.1,148.4l46.2,12.4"/>
<path class="st8" d="M99.2,160.7l12.4,46.2"/>
<path class="st9" d="M111.5,207L53,240.8"/>
<path class="st7" d="M53.1,240.7l-33.8-33.8"/>
<path class="st9" d="M19.2,207l33.9-58.6"/>
<path class="st10" d="M53.1,148.4l-33.8,58.5"/>
<path class="st7" d="M99.2,160.7l12.4,46.2"/>
<path class="st11" d="M111.5,207L111.5,207"/>
<path class="st10" d="M111.5,207L53,240.8"/>
<line class="st6" x1="39.6" y1="222.9" x2="35.2" y2="227.3"/>
</svg>
